<svg width="90" height="25" viewBox="0 0 90 25" fill="none" xmlns="http://www.w3.org/2000/svg">
<path d="M21.26 19V6.04H25.391C25.499 6.04 25.712 6.043 26.03 6.049C26.354 6.055 26.666 6.076 26.966 6.112C27.992 6.244 28.859 6.61 29.567 7.21C30.281 7.804 30.821 8.563 31.187 9.487C31.553 10.411 31.736 11.422 31.736 12.52C31.736 13.618 31.553 14.629 31.187 15.553C30.821 16.477 30.281 17.239 29.567 17.839C28.859 18.433 27.992 18.796 26.966 18.928C26.672 18.964 26.363 18.985 26.039 18.991C25.715 18.997 25.499 19 25.391 19H21.26ZM23.465 16.957H25.391C25.571 16.957 25.799 16.951 26.075 16.939C26.357 16.927 26.606 16.9 26.822 16.858C27.434 16.744 27.932 16.471 28.316 16.039C28.7 15.607 28.982 15.082 29.162 14.464C29.348 13.846 29.441 13.198 29.441 12.52C29.441 11.818 29.348 11.158 29.162 10.54C28.976 9.922 28.688 9.403 28.298 8.983C27.914 8.563 27.422 8.296 26.822 8.182C26.606 8.134 26.357 8.107 26.075 8.101C25.799 8.089 25.571 8.083 25.391 8.083H23.465V16.957ZM33.8635 19V6.04H39.2185C39.3445 6.04 39.5065 6.046 39.7045 6.058C39.9025 6.064 40.0855 6.082 40.2535 6.112C41.0035 6.226 41.6215 6.475 42.1075 6.859C42.5995 7.243 42.9625 7.729 43.1965 8.317C43.4365 8.899 43.5565 9.547 43.5565 10.261C43.5565 11.317 43.2895 12.226 42.7555 12.988C42.2215 13.744 41.4025 14.212 40.2985 14.392L39.3715 14.473H36.0325V19H33.8635ZM41.3065 19L38.7505 13.726L40.9555 13.24L43.7635 19H41.3065ZM36.0325 12.448H39.1285C39.2485 12.448 39.3835 12.442 39.5335 12.43C39.6835 12.418 39.8215 12.394 39.9475 12.358C40.3075 12.268 40.5895 12.109 40.7935 11.881C41.0035 11.653 41.1505 11.395 41.2345 11.107C41.3245 10.819 41.3695 10.537 41.3695 10.261C41.3695 9.985 41.3245 9.703 41.2345 9.415C41.1505 9.121 41.0035 8.86 40.7935 8.632C40.5895 8.404 40.3075 8.245 39.9475 8.155C39.8215 8.119 39.6835 8.098 39.5335 8.092C39.3835 8.08 39.2485 8.074 39.1285 8.074H36.0325V12.448ZM44.8463 19L48.9323 6.04H52.1093L56.1953 19H53.9633L50.2553 7.372H50.7413L47.0783 19H44.8463ZM47.1233 16.192V14.167H53.9273V16.192H47.1233ZM62.8169 19.27C61.9769 19.27 61.1879 19.123 60.4499 18.829C59.7179 18.529 59.0729 18.091 58.5149 17.515C57.9629 16.939 57.5309 16.234 57.2189 15.4C56.9069 14.56 56.7509 13.6 56.7509 12.52C56.7509 11.104 57.0149 9.895 57.5429 8.893C58.0709 7.885 58.7939 7.114 59.7119 6.58C60.6299 6.04 61.6649 5.77 62.8169 5.77C64.4129 5.77 65.6759 6.142 66.6059 6.886C67.5419 7.624 68.1749 8.662 68.5049 10L66.2909 10.351C66.0449 9.583 65.6429 8.971 65.0849 8.515C64.5269 8.053 63.8159 7.822 62.9519 7.822C62.0819 7.81 61.3589 7.999 60.7829 8.389C60.2069 8.779 59.7719 9.328 59.4779 10.036C59.1899 10.744 59.0459 11.572 59.0459 12.52C59.0459 13.468 59.1899 14.293 59.4779 14.995C59.7659 15.691 60.1979 16.234 60.7739 16.624C61.3559 17.014 62.0819 17.215 62.9519 17.227C63.6059 17.233 64.1789 17.116 64.6709 16.876C65.1629 16.63 65.5649 16.261 65.8769 15.769C66.1889 15.271 66.3989 14.65 66.5069 13.906H64.2209V12.205H68.8109C68.8229 12.301 68.8319 12.442 68.8379 12.628C68.8439 12.814 68.8469 12.925 68.8469 12.961C68.8469 14.185 68.6039 15.274 68.1179 16.228C67.6379 17.176 66.9479 17.92 66.0479 18.46C65.1479 19 64.0709 19.27 62.8169 19.27Z" fill="white"/>
<path d="M84 17L89 12L84 7" stroke="white" stroke-width="2" stroke-linecap="round" stroke-linejoin="round"/>
<path d="M6 17L1 12L6 7" stroke="white" stroke-width="2" stroke-linecap="round" stroke-linejoin="round"/>
</svg>
